<?xml version="1.0" encoding="UTF-8"?>
<svg id="Livello_2" data-name="Livello 2" xmlns="http://www.w3.org/2000/svg" viewBox="0 0 1000 295.5">
  <g id="Livello_1-2" data-name="Livello 1">
    <g>
      <g>
        <g>
          <path d="M283.22,183.25v-36.35c0-38.52-13.44-71.56-40.31-99.13C216.04,20.21,183.46,6.42,145.17,6.42c-38.29,0-70.99,13.84-98.09,41.52C19.98,75.63,6.42,108.61,6.42,146.9c0,38.29,13.56,71.21,40.66,98.78,27.1,27.56,59.8,41.34,98.09,41.34h38.04v-58.47h-38.04c-22.83,0-42.5-7.9-58.99-23.7-16.49-15.8-24.74-35.12-24.74-57.96,0-22.83,8.25-42.15,24.74-57.96,16.49-15.8,36.16-23.7,58.99-23.7s42.38,7.9,58.65,23.7c16.26,15.8,24.39,35.12,24.39,57.96v36.35h55.01Z" style="fill: #59c2cb; fill-rule: evenodd;"/>
          <path d="M145.17,6.42c38.29,0,70.87,13.78,97.74,41.35,26.87,27.56,40.31,60.61,40.31,99.13v36.35h-55.01v-36.35c0-22.83-8.13-42.15-24.39-57.96-16.26-15.8-35.81-23.7-58.65-23.7s-42.5,7.9-58.99,23.7c-16.49,15.8-24.74,35.12-24.74,57.96s8.25,42.15,24.74,57.96c16.49,15.8,36.16,23.7,58.99,23.7h38.04v58.47h-38.04c-38.29,0-70.99-13.78-98.09-41.34C19.98,218.11,6.42,185.19,6.42,146.9c0-38.29,13.56-71.27,40.66-98.96C74.18,20.27,106.88,6.42,145.17,6.42m0-6.42C105.27,0,70.72,14.62,42.49,43.45,14.3,72.25,0,107.05,0,146.9c0,39.85,14.3,74.6,42.5,103.29,28.22,28.71,62.77,43.26,102.67,43.26h44.46v-71.32h-44.46c-21.31,0-39.16-7.17-54.55-21.92-15.32-14.67-22.76-32.11-22.76-53.32s7.45-38.64,22.76-53.32c15.39-14.75,33.23-21.91,54.55-21.91s39.01,7.16,54.17,21.88c15.1,14.68,22.44,32.13,22.44,53.35v42.77h67.86v-42.77c0-40.08-14.18-74.94-42.14-103.61C219.51,14.56,185.08,0,145.17,0h0Z" style="fill: #4c4c4c;"/>
        </g>
        <g>
          <polygon points="283.22 228.9 283.22 228.24 228.21 228.24 228.21 228.56 228.21 287.03 283.22 287.03 283.22 228.9" style="fill: #fbb03b; fill-rule: evenodd;"/>
          <path d="M283.22,228.24v58.78h-55.01v-58.78h55.01m6.42-6.42h-67.86v71.63h67.86v-71.63h0Z" style="fill: #4c4c4c;"/>
        </g>
        <g>
          <path d="M104.17,145.23c0-22.56,18.29-40.85,40.85-40.85s40.85,18.29,40.85,40.85c0,22.56-18.29,40.85-40.85,40.85-22.56,0-40.85-18.29-40.85-40.85" style="fill: #e5a19b; fill-rule: evenodd;"/>
          <path d="M145.02,189.29c-24.3,0-44.06-19.77-44.06-44.06s19.77-44.06,44.06-44.06,44.06,19.77,44.06,44.06-19.76,44.06-44.06,44.06Zm0-81.7c-20.75,0-37.64,16.88-37.64,37.64s16.88,37.64,37.64,37.64,37.64-16.88,37.64-37.64-16.88-37.64-37.64-37.64Z" style="fill: #4c4c4c;"/>
        </g>
      </g>
      <g>
        <g>
          <path d="M393.89,13.22h32.93l61.51,137.31h-27.36l-12.59-28.08h-76.04l-12.59,28.08h-27.36L393.89,13.22Zm46.01,89.97l-29.54-66.6-29.79,66.6h59.33Z" style="fill: #e5a19b;"/>
          <path d="M581.1,146.16c0,13.55-3.67,23.79-11,30.74-7.34,6.94-18.17,10.41-32.5,10.41-7.05,0-13.05-.76-17.97-2.27-4.93-1.51-8.96-3.59-12.09-6.21-3.14-2.63-5.49-5.63-7.05-8.99-1.57-3.36-2.52-6.83-2.86-10.41h17.97c.56,2.24,1.48,4.17,2.77,5.79,1.29,1.62,2.91,2.94,4.87,3.95,1.96,1.01,4.17,1.73,6.63,2.18,2.46,.45,5.04,.67,7.73,.67,8.84,0,15.42-2.13,19.74-6.38,4.31-4.26,6.47-10.75,6.47-19.48v-10.58c-3.02,4.37-6.92,7.81-11.67,10.33-4.76,2.52-10.72,3.78-17.89,3.78-6.27,0-12.01-1.15-17.22-3.44-5.21-2.29-9.72-5.4-13.52-9.32-3.81-3.92-6.78-8.54-8.9-13.86-2.13-5.32-3.19-11-3.19-17.05s1.06-12.06,3.19-17.38c2.13-5.32,5.09-9.97,8.9-13.94,3.81-3.97,8.34-7.08,13.61-9.32,5.26-2.24,10.97-3.36,17.13-3.36,7.16,0,13.13,1.26,17.89,3.78,4.76,2.52,8.65,5.96,11.67,10.33v-12.43h17.3v82.47Zm-71.55-39.98c0,3.59,.64,7,1.93,10.25,1.29,3.25,3.08,6.13,5.37,8.65,2.29,2.52,5.15,4.51,8.57,5.96,3.41,1.46,7.19,2.18,11.34,2.18,3.81,0,7.25-.59,10.33-1.76,3.08-1.18,5.77-2.8,8.06-4.87,2.29-2.07,4.2-4.54,5.71-7.39,1.51-2.86,2.49-5.91,2.94-9.15v-8.06c-.56-3.47-1.6-6.63-3.11-9.49s-3.44-5.29-5.79-7.31c-2.35-2.02-5.07-3.61-8.15-4.79-3.08-1.18-6.41-1.76-9.99-1.76-4.14,0-7.92,.76-11.34,2.27-3.42,1.51-6.27,3.53-8.57,6.05-2.3,2.52-4.09,5.46-5.37,8.82-1.29,3.36-1.93,6.83-1.93,10.41Z" style="fill: #e5a19b;"/>
          <path d="M613.74,111.56c.45,3.36,1.4,6.55,2.86,9.57,1.45,3.02,3.33,5.6,5.63,7.73,2.29,2.13,5.04,3.84,8.23,5.12,3.19,1.29,6.69,1.93,10.5,1.93,5.15,0,9.57-1.09,13.27-3.28,3.7-2.18,6.44-4.9,8.23-8.15h19.99c-1.34,4.14-3.25,7.89-5.71,11.25-2.46,3.36-5.46,6.24-8.99,8.65-3.53,2.41-7.59,4.28-12.18,5.63-4.59,1.34-9.52,2.02-14.78,2.02-6.27,0-12.18-1.18-17.72-3.53-5.54-2.35-10.33-5.54-14.36-9.57-4.03-4.03-7.22-8.76-9.57-14.19-2.35-5.43-3.53-11.34-3.53-17.72s1.12-12.32,3.36-17.8c2.24-5.49,5.35-10.25,9.32-14.28,3.97-4.03,8.68-7.19,14.11-9.49,5.43-2.29,11.34-3.44,17.72-3.44,6.05,0,11.67,.9,16.88,2.69,5.21,1.79,9.77,4.34,13.69,7.64,3.92,3.3,7.11,7.25,9.57,11.84,2.46,4.59,3.97,9.74,4.54,15.45,.22,2.24,.31,4.28,.25,6.13-.06,1.85-.14,3.78-.25,5.79h-71.05Zm51.9-12.26c-.34-3.25-1.18-6.16-2.52-8.73-1.34-2.57-3.14-4.79-5.37-6.63-2.24-1.85-4.84-3.28-7.81-4.28-2.97-1.01-6.24-1.51-9.83-1.51s-6.63,.53-9.49,1.6c-2.86,1.07-5.4,2.55-7.64,4.45-2.24,1.91-4.09,4.14-5.54,6.72-1.46,2.58-2.52,5.37-3.19,8.4h51.4Z" style="fill: #e5a19b;"/>
          <path d="M702.93,63.69h17.3v86.84h-17.3V63.69Z" style="fill: #b3db9a;"/>
          <path d="M740.77,63.69h17.3v15.29c3.25-5.26,7.56-9.41,12.93-12.43,5.37-3.02,11.42-4.53,18.14-4.53,4.81,0,9.1,.81,12.85,2.44,3.75,1.62,6.94,3.84,9.57,6.63,2.63,2.8,4.65,6.16,6.05,10.08,1.4,3.92,2.1,8.17,2.1,12.76v56.6h-17.3v-51.9c0-3.25-.48-6.07-1.43-8.48-.95-2.41-2.33-4.48-4.12-6.21-1.79-1.74-3.86-3.02-6.21-3.86s-4.93-1.26-7.73-1.26c-3.59,0-6.83,.81-9.74,2.44-2.91,1.62-5.46,3.75-7.64,6.38-2.18,2.63-3.92,5.57-5.21,8.82-1.29,3.25-2.04,6.55-2.27,9.91v44.17h-17.3V63.69Z" style="fill: #b3db9a;"/>
          <path d="M923.91,146.16c0,13.55-3.67,23.79-11,30.74-7.34,6.94-18.17,10.41-32.5,10.41-7.05,0-13.05-.76-17.97-2.27-4.93-1.51-8.96-3.59-12.09-6.21-3.14-2.63-5.49-5.63-7.05-8.99-1.57-3.36-2.52-6.83-2.86-10.41h17.97c.56,2.24,1.48,4.17,2.77,5.79,1.29,1.62,2.91,2.94,4.87,3.95,1.96,1.01,4.17,1.73,6.63,2.18,2.46,.45,5.04,.67,7.73,.67,8.84,0,15.42-2.13,19.74-6.38,4.31-4.26,6.47-10.75,6.47-19.48v-10.58c-3.02,4.37-6.92,7.81-11.67,10.33-4.76,2.52-10.72,3.78-17.89,3.78-6.27,0-12.01-1.15-17.22-3.44-5.21-2.29-9.72-5.4-13.52-9.32-3.81-3.92-6.78-8.54-8.9-13.86-2.13-5.32-3.19-11-3.19-17.05s1.06-12.06,3.19-17.38c2.13-5.32,5.09-9.97,8.9-13.94,3.81-3.97,8.34-7.08,13.61-9.32,5.26-2.24,10.97-3.36,17.13-3.36,7.16,0,13.13,1.26,17.89,3.78,4.76,2.52,8.65,5.96,11.67,10.33v-12.43h17.3v82.47Zm-71.55-39.98c0,3.59,.64,7,1.93,10.25,1.29,3.25,3.08,6.13,5.37,8.65,2.29,2.52,5.15,4.51,8.57,5.96,3.41,1.46,7.19,2.18,11.34,2.18,3.81,0,7.25-.59,10.33-1.76,3.08-1.18,5.77-2.8,8.06-4.87,2.29-2.07,4.2-4.54,5.71-7.39,1.51-2.86,2.49-5.91,2.94-9.15v-8.06c-.56-3.47-1.6-6.63-3.11-9.49s-3.44-5.29-5.79-7.31c-2.35-2.02-5.07-3.61-8.15-4.79-3.08-1.18-6.41-1.76-9.99-1.76-4.14,0-7.92,.76-11.34,2.27-3.42,1.51-6.27,3.53-8.57,6.05-2.3,2.52-4.09,5.46-5.37,8.82-1.29,3.36-1.93,6.83-1.93,10.41Z" style="fill: #b3db9a;"/>
          <path d="M363.66,197.74h-38.97l3.64-16.46h92.43v16.46h-38.97v96.08h-18.14v-96.08Z" style="fill: #59c2cb;"/>
          <path d="M434.38,206.98h17.3v86.84h-17.3v-86.84Z" style="fill: #59c2cb;"/>
          <path d="M472.22,206.98h17.3v14.11c3.13-4.93,7.05-8.79,11.76-11.59,4.7-2.8,10.02-4.2,15.96-4.2,3.25,0,6.24,.45,8.99,1.34,2.74,.9,5.21,2.18,7.39,3.86,2.18,1.68,4.09,3.67,5.71,5.96,1.62,2.3,2.88,4.84,3.78,7.64,3.13-5.82,7.22-10.41,12.26-13.77,5.04-3.36,10.92-5.04,17.64-5.04,4.37,0,8.29,.81,11.76,2.44,3.47,1.62,6.41,3.84,8.82,6.63,2.41,2.8,4.25,6.16,5.54,10.08,1.29,3.92,1.93,8.17,1.93,12.76v56.6h-17.3v-51.9c0-3.25-.45-6.07-1.34-8.48-.9-2.41-2.1-4.48-3.61-6.21-1.51-1.74-3.3-3.02-5.37-3.86-2.07-.84-4.28-1.26-6.63-1.26-3.02,0-5.82,.81-8.4,2.44-2.58,1.62-4.82,3.75-6.72,6.38-1.91,2.63-3.42,5.57-4.54,8.82-1.12,3.25-1.74,6.55-1.85,9.91v44.17h-17.3v-51.9c0-3.25-.42-6.07-1.26-8.48-.84-2.41-2.02-4.48-3.53-6.21-1.51-1.74-3.3-3.02-5.37-3.86-2.07-.84-4.34-1.26-6.8-1.26-3.02,0-5.82,.81-8.4,2.44-2.58,1.62-4.82,3.75-6.72,6.38-1.91,2.63-3.42,5.57-4.53,8.82-1.12,3.25-1.74,6.55-1.85,9.91v44.17h-17.3v-86.84Z" style="fill: #59c2cb;"/>
          <path d="M633.69,254.85c.45,3.36,1.4,6.55,2.86,9.57,1.45,3.02,3.33,5.6,5.63,7.73,2.29,2.13,5.04,3.84,8.23,5.12,3.19,1.29,6.69,1.93,10.5,1.93,5.15,0,9.57-1.09,13.27-3.28,3.7-2.18,6.44-4.9,8.23-8.15h19.99c-1.34,4.14-3.25,7.89-5.71,11.25-2.46,3.36-5.46,6.24-8.99,8.65-3.53,2.41-7.59,4.28-12.18,5.63-4.59,1.34-9.52,2.02-14.78,2.02-6.27,0-12.18-1.18-17.72-3.53-5.54-2.35-10.33-5.54-14.36-9.57-4.03-4.03-7.22-8.76-9.57-14.19-2.35-5.43-3.53-11.34-3.53-17.72s1.12-12.32,3.36-17.8c2.24-5.49,5.35-10.25,9.32-14.28,3.97-4.03,8.68-7.19,14.11-9.49,5.43-2.29,11.34-3.44,17.72-3.44,6.05,0,11.67,.9,16.88,2.69,5.21,1.79,9.77,4.34,13.69,7.64,3.92,3.3,7.11,7.25,9.57,11.84,2.46,4.59,3.97,9.74,4.54,15.45,.22,2.24,.31,4.28,.25,6.13-.06,1.85-.14,3.78-.25,5.79h-71.05Zm51.9-12.26c-.34-3.25-1.18-6.16-2.52-8.73-1.34-2.57-3.14-4.79-5.37-6.63-2.24-1.85-4.84-3.28-7.81-4.28-2.97-1.01-6.24-1.51-9.83-1.51s-6.63,.53-9.49,1.6c-2.86,1.07-5.4,2.55-7.64,4.45-2.24,1.91-4.09,4.14-5.54,6.72-1.46,2.58-2.52,5.37-3.19,8.4h51.4Z" style="fill: #59c2cb;"/>
          <path d="M732.93,283.49c-8.23-8-12.35-19.4-12.35-34.18v-68.03h18.14v67.35c0,9.41,2.63,16.71,7.89,21.92,5.26,5.21,12.32,7.81,21.16,7.81s15.87-2.6,21.08-7.81c5.21-5.21,7.81-12.51,7.81-21.92v-67.35h18.14v68.03c0,14.78-4.09,26.18-12.26,34.18-8.17,8.01-19.76,12.01-34.77,12.01s-26.62-4-34.85-12.01Z" style="fill: #4189c5;"/>
          <path d="M830.37,231.34c0-8.06,3.02-14.42,9.07-19.06,6.05-4.65,14.33-6.97,24.86-6.97s18.95,2.33,24.94,6.97c5.99,4.65,9.1,11.11,9.32,19.4h-17.97c-.11-3.58-1.6-6.41-4.45-8.48-2.86-2.07-6.63-3.11-11.34-3.11-5.38,0-9.49,.9-12.35,2.69-2.86,1.79-4.28,4.42-4.28,7.89s1.31,6.05,3.95,7.73c2.63,1.68,5.88,3.02,9.74,4.03,3.86,1.01,8.06,1.93,12.6,2.77s8.73,2.1,12.6,3.78c3.86,1.68,7.08,4.09,9.66,7.22,2.58,3.14,3.86,7.39,3.86,12.77,0,8.06-3.02,14.45-9.07,19.15-6.05,4.7-14.73,7.05-26.03,7.05-5.82,0-11.03-.65-15.62-1.93-4.59-1.29-8.46-3.08-11.59-5.38-3.14-2.29-5.54-5.09-7.22-8.4-1.68-3.3-2.52-6.91-2.52-10.83h17.97c.67,3.92,2.6,6.86,5.79,8.82,3.19,1.96,7.7,2.94,13.52,2.94s10.08-.84,12.77-2.52c2.69-1.68,4.03-4.25,4.03-7.73s-1.29-5.82-3.86-7.39c-2.58-1.57-5.79-2.8-9.66-3.7-3.86-.89-8.06-1.73-12.6-2.52-4.54-.78-8.71-2.07-12.51-3.86-3.81-1.79-7.03-4.34-9.66-7.64-2.63-3.3-3.95-7.87-3.95-13.69Z" style="fill: #4189c5;"/>
          <path d="M928.68,254.85c.45,3.36,1.4,6.55,2.86,9.57,1.45,3.02,3.33,5.6,5.63,7.73,2.29,2.13,5.04,3.84,8.23,5.12,3.19,1.29,6.69,1.93,10.5,1.93,5.15,0,9.57-1.09,13.27-3.28,3.7-2.18,6.44-4.9,8.23-8.15h19.99c-1.34,4.14-3.25,7.89-5.71,11.25-2.46,3.36-5.46,6.24-8.99,8.65-3.53,2.41-7.59,4.28-12.18,5.63-4.59,1.34-9.52,2.02-14.78,2.02-6.27,0-12.18-1.18-17.72-3.53-5.54-2.35-10.33-5.54-14.36-9.57-4.03-4.03-7.22-8.76-9.57-14.19-2.35-5.43-3.53-11.34-3.53-17.72s1.12-12.32,3.36-17.8c2.24-5.49,5.35-10.25,9.32-14.28,3.97-4.03,8.68-7.19,14.11-9.49,5.43-2.29,11.34-3.44,17.72-3.44,6.05,0,11.67,.9,16.88,2.69,5.21,1.79,9.77,4.34,13.69,7.64,3.92,3.3,7.11,7.25,9.57,11.84,2.46,4.59,3.97,9.74,4.54,15.45,.22,2.24,.31,4.28,.25,6.13-.06,1.85-.14,3.78-.25,5.79h-71.05Zm51.9-12.26c-.34-3.25-1.18-6.16-2.52-8.73-1.34-2.57-3.14-4.79-5.37-6.63-2.24-1.85-4.84-3.28-7.81-4.28-2.97-1.01-6.24-1.51-9.83-1.51s-6.63,.53-9.49,1.6c-2.86,1.07-5.4,2.55-7.64,4.45-2.24,1.91-4.09,4.14-5.54,6.72-1.46,2.58-2.52,5.37-3.19,8.4h51.4Z" style="fill: #4189c5;"/>
        </g>
        <path d="M700.24,41.51c0-1.57,.28-3.02,.84-4.37,.56-1.34,1.34-2.55,2.35-3.61,1.01-1.06,2.24-1.87,3.7-2.44,1.45-.56,2.97-.84,4.53-.84s3.05,.28,4.45,.84c1.4,.56,2.6,1.37,3.61,2.44,1.01,1.07,1.79,2.27,2.35,3.61,.56,1.34,.84,2.8,.84,4.37,0,3.14-1.09,5.79-3.28,7.98s-4.84,3.28-7.98,3.28-5.96-1.09-8.15-3.28-3.28-4.84-3.28-7.98Z" style="fill: #fbb03b;"/>
        <path d="M431.69,184.8c0-1.57,.28-3.02,.84-4.37,.56-1.34,1.34-2.55,2.35-3.61,1.01-1.06,2.24-1.87,3.7-2.44,1.45-.56,2.97-.84,4.53-.84s3.05,.28,4.45,.84c1.4,.56,2.6,1.37,3.61,2.44,1.01,1.07,1.79,2.27,2.35,3.61,.56,1.34,.84,2.8,.84,4.37,0,3.14-1.09,5.79-3.28,7.98s-4.84,3.28-7.98,3.28-5.96-1.09-8.15-3.28-3.28-4.84-3.28-7.98Z" style="fill: #fbb03b;"/>
      </g>
    </g>
  </g>
</svg>