<?xml version="1.0" encoding="utf-8"?>
<!-- Generator: Adobe Illustrator 26.5.0, SVG Export Plug-In . SVG Version: 6.00 Build 0)  -->
<svg version="1.1" id="Livello_2" xmlns="http://www.w3.org/2000/svg" xmlns:xlink="http://www.w3.org/1999/xlink" x="0px" y="0px"
	 viewBox="0 0 294.3 295.5" style="enable-background:new 0 0 294.3 295.5;" xml:space="preserve">
<style type="text/css">
	.st0{fill-rule:evenodd;clip-rule:evenodd;fill:#59C2CB;}
	.st1{fill:#4C4C4C;}
	.st2{fill-rule:evenodd;clip-rule:evenodd;fill:#FBB03B;}
	.st3{fill-rule:evenodd;clip-rule:evenodd;fill:#E5A19B;}
</style>
<g id="Livello_1-2">
	<g>
		<g>
			<g>
				<path class="st0" d="M283.2,183.2v-36.4c0-38.5-13.4-71.6-40.3-99.1C216,20.2,183.5,6.4,145.2,6.4s-71,13.8-98.1,41.5
					C20,75.6,6.4,108.6,6.4,146.9s13.6,71.2,40.7,98.8c27.1,27.6,59.8,41.3,98.1,41.3h38v-58.5h-38c-22.8,0-42.5-7.9-59-23.7
					s-24.7-35.1-24.7-58c0-22.8,8.2-42.2,24.7-58c16.5-15.8,36.2-23.7,59-23.7s42.4,7.9,58.6,23.7c16.3,15.8,24.4,35.1,24.4,58v36.4
					L283.2,183.2L283.2,183.2z"/>
				<path class="st1" d="M145.2,6.4c38.3,0,70.9,13.8,97.7,41.3c26.9,27.6,40.3,60.6,40.3,99.1v36.4h-55v-36.4
					c0-22.8-8.1-42.2-24.4-58c-16.3-15.8-35.8-23.7-58.6-23.7s-42.5,7.9-59,23.7s-24.7,35.1-24.7,58s8.2,42.1,24.7,58
					c16.5,15.8,36.2,23.7,59,23.7h38V287h-38c-38.3,0-71-13.8-98.1-41.3C20,218.1,6.4,185.2,6.4,146.9s13.6-71.3,40.7-99
					C74.2,20.3,106.9,6.4,145.2,6.4 M145.2,0C105.3,0,70.7,14.6,42.5,43.5C14.3,72.2,0,107.1,0,146.9s14.3,74.6,42.5,103.3
					c28.2,28.7,62.8,43.3,102.7,43.3h44.5v-71.3h-44.5c-21.3,0-39.2-7.2-54.5-21.9c-15.3-14.7-22.8-32.1-22.8-53.3
					s7.4-38.6,22.8-53.3c15.4-14.8,33.2-21.9,54.5-21.9s39,7.2,54.2,21.9c15.1,14.7,22.4,32.1,22.4,53.3v42.8h67.9v-42.8
					c0-40.1-14.2-74.9-42.1-103.6C219.5,14.6,185.1,0,145.2,0L145.2,0z"/>
			</g>
			<g>
				<polygon class="st2" points="283.2,228.9 283.2,228.2 228.2,228.2 228.2,228.6 228.2,287 283.2,287 				"/>
				<path class="st1" d="M283.2,228.2V287h-55v-58.8L283.2,228.2 M289.6,221.8h-67.9v71.6h67.9V221.8L289.6,221.8L289.6,221.8z"/>
			</g>
			<g>
				<path class="st3" d="M104.2,145.2c0-22.6,18.3-40.8,40.8-40.8s40.8,18.3,40.8,40.8s-18.3,40.8-40.8,40.8
					S104.2,167.8,104.2,145.2"/>
				<path class="st1" d="M145,189.3c-24.3,0-44.1-19.8-44.1-44.1s19.8-44.1,44.1-44.1s44.1,19.8,44.1,44.1S169.3,189.3,145,189.3z
					 M145,107.6c-20.7,0-37.6,16.9-37.6,37.6s16.9,37.6,37.6,37.6s37.6-16.9,37.6-37.6S165.8,107.6,145,107.6z"/>
			</g>
		</g>
	</g>
</g>
</svg>
