<?xml version="1.0" encoding="utf-8"?>
<!-- Generator: Adobe Illustrator 26.5.0, SVG Export Plug-In . SVG Version: 6.00 Build 0)  -->
<svg version="1.1" id="Layer_1" xmlns="http://www.w3.org/2000/svg" xmlns:xlink="http://www.w3.org/1999/xlink" x="0px" y="0px"
	 viewBox="0 0 31.9 32" style="enable-background:new 0 0 31.9 32;" xml:space="preserve">
<style type="text/css">
	.st0{fill-rule:evenodd;clip-rule:evenodd;fill:#59C2CB;}
	.st1{fill:#4C4C4C;}
	.st2{fill-rule:evenodd;clip-rule:evenodd;fill:#FBB03B;}
	.st3{fill-rule:evenodd;clip-rule:evenodd;fill:#E5A19B;}
</style>
<g>
	<g>
		<g>
			<path class="st0" d="M30.4,19.4v-3.5c0-3.7-1.4-6.9-4.2-9.5c-2.8-2.6-6.2-4-10.2-4s-7.4,1.3-10.3,4c-2.8,2.7-4.3,5.8-4.3,9.5
				s1.4,6.8,4.3,9.5c2.8,2.6,6.3,4,10.3,4h4v-5.6h-4c-2.4,0-4.4-0.8-6.2-2.3s-2.6-3.4-2.6-5.6c0-2.2,0.9-4,2.6-5.6
				c1.7-1.5,3.8-2.3,6.2-2.3s4.4,0.8,6.1,2.3c1.7,1.5,2.6,3.4,2.6,5.6v3.5L30.4,19.4L30.4,19.4z"/>
			<path class="st1" d="M15.9,2.4c4,0,7.4,1.3,10.2,4c2.8,2.6,4.2,5.8,4.2,9.5v3.5h-5.8v-3.5c0-2.2-0.9-4-2.6-5.6
				c-1.7-1.5-3.7-2.3-6.1-2.3s-4.4,0.8-6.2,2.3s-2.6,3.4-2.6,5.6s0.9,4,2.6,5.6c1.7,1.5,3.8,2.3,6.2,2.3h4v5.6h-4
				c-4,0-7.4-1.3-10.3-4c-2.8-2.6-4.3-5.8-4.3-9.5s1.4-6.8,4.3-9.5C8.5,3.8,11.9,2.4,15.9,2.4 M15.9,1.8C11.8,1.8,8.1,3.2,5.2,6
				c-2.9,2.8-4.4,6.1-4.4,9.9s1.5,7.2,4.4,9.9c3,2.8,6.6,4.2,10.7,4.2h4.7v-6.8h-4.7c-2.2,0-4.1-0.7-5.7-2.1
				c-1.6-1.4-2.4-3.1-2.4-5.1s0.8-3.7,2.4-5.1c1.6-1.4,3.5-2.1,5.7-2.1s4.1,0.7,5.7,2.1c1.6,1.4,2.3,3.1,2.3,5.1V20H31v-4.1
				c0-3.8-1.5-7.2-4.4-9.9C23.7,3.2,20.1,1.8,15.9,1.8L15.9,1.8z"/>
		</g>
		<g>
			<polygon class="st2" points="30.4,23.8 30.4,23.7 24.6,23.7 24.6,23.7 24.6,29.4 30.4,29.4 			"/>
			<path class="st1" d="M30.4,23.7v5.6h-5.8v-5.6H30.4 M31,23.1h-7.1V30H31V23.1L31,23.1L31,23.1z"/>
		</g>
		<g>
			<path class="st3" d="M11.6,15.7c0-2.2,1.9-3.9,4.3-3.9s4.3,1.8,4.3,3.9s-1.9,3.9-4.3,3.9S11.6,17.9,11.6,15.7"/>
			<path class="st1" d="M15.9,20c-2.5,0-4.6-1.9-4.6-4.2s2.1-4.2,4.6-4.2s4.6,1.9,4.6,4.2S18.5,20,15.9,20z M15.9,12.1
				c-2.2,0-3.9,1.6-3.9,3.6s1.8,3.6,3.9,3.6s3.9-1.6,3.9-3.6S18.1,12.1,15.9,12.1z"/>
		</g>
	</g>
</g>
</svg>
